<?xml version="1.0" encoding="UTF-8"?>
<svg id="Layer_1" data-name="Layer 1" xmlns="http://www.w3.org/2000/svg" viewBox="0 0 303.48 315.96">
  <defs>
    <style>
      .cls-1 {
        fill: #f4f4f4;
      }

      .cls-2 {
        opacity: .4;
      }
    </style>
  </defs>
  <rect class="cls-2" width="303.48" height="315.96"/>
  <path class="cls-1" d="M213.02,293.28h64.65c0-.14.04-.25.07-.39.56-3.88.74-8.32.11-13.23-.11-.85-.25-1.69-.39-2.5-2.72-5.89-5.96-12.27-9.95-18.94-5.57-9.28-11.36-17.14-16.75-23.7-12.59,14.29-25.22,28.57-37.81,42.89.04-10.26.11-20.53.14-30.76,8.18-9.03,16.37-18.09,24.51-27.12-8.18-6.63-16.4-13.23-24.58-19.86l.07-30.83c13.23,11.57,26.49,23.14,39.72,34.71,10.12-11.57,20.25-23.1,30.37-34.67,0,9.21,0,18.41.04,27.62-6.81,7.69-13.61,15.34-20.42,23.03,5.75,6.53,12.98,16.15,19.01,29.06,6.6,14.14,9.28,26.98,10.41,36.01,0,10.48.07,20.92.07,31.36h11.19V0H0v315.96h213.02v-22.68Z"/>
</svg>