<?xml version="1.0" encoding="UTF-8"?>
<svg id="Layer_1" data-name="Layer 1" xmlns="http://www.w3.org/2000/svg" viewBox="0 0 1280.04 895.93">
  <defs>
    <style>
      .cls-1 {
        fill: #f4f4f5;
      }

      .cls-2 {
        opacity: .4;
      }
    </style>
  </defs>
  <rect class="cls-2" width="1280.04" height="895.93"/>
  <path class="cls-1" d="M0,0v895.93h902.52c-.03-26.45-.06-52.89-.09-79.33,75.23,0,150.47-.02,225.7-.03.07-.46.15-.93.22-1.39,1.91-13.53,2.56-29.12.41-46.14-.38-2.98-.82-5.88-1.33-8.7-9.42-20.63-20.85-42.89-34.76-66.1-19.4-32.37-39.6-59.87-58.52-82.75-44.01,49.91-88.01,99.82-132.02,149.72.17-35.82.34-71.64.51-107.45,28.54-31.57,57.09-63.15,85.63-94.72-28.61-23.11-57.22-46.22-85.82-69.34.07-35.89.13-71.78.2-107.68,46.23,40.41,92.46,80.82,138.69,121.23,35.34-40.34,70.68-80.67,106.02-121.01.06,32.16.11,64.32.17,96.48-23.79,26.81-47.58,53.61-71.37,80.42,20.01,22.75,45.32,56.39,66.33,101.49,23.02,49.41,32.35,94.22,36.39,125.76.1,36.52.2,73.04.3,109.56h100.86V0H0Z"/>
</svg>