<?xml version="1.0" encoding="UTF-8"?>
<svg id="Layer_1" xmlns="http://www.w3.org/2000/svg" version="1.1" viewBox="0 0 1920 1080">
  <!-- Generator: Adobe Illustrator 29.2.1, SVG Export Plug-In . SVG Version: 2.1.0 Build 116)  -->
  <defs>
    <style>
      .st0 {
        isolation: isolate;
        opacity: .4;
      }

      .st1 {
        fill: #f4f4f5;
      }
    </style>
  </defs>
  <rect class="st0" y="0" width="1920" height="1080"/>
  <path class="st1" d="M0,0v1080h1374.2c0-34,0-67.9,0-101.9h289c0-.6.2-1.2.3-1.8,2.4-17.3,3.3-37.3.5-59.1-.5-3.8-1.1-7.5-1.7-11.2-12.1-26.4-26.7-55-44.5-84.7-24.8-41.5-50.7-76.7-74.9-106.1-56.3,64-112.7,127.9-169.1,191.9.2-45.9.4-91.8.7-137.7,36.6-40.5,73.1-80.9,109.7-121.4-36.6-29.6-73.3-59.2-109.9-88.9,0-46,.2-92,.2-138,59.2,51.8,118.4,103.6,177.6,155.4,45.3-51.7,90.5-103.4,135.8-155.1,0,41.2,0,82.4.2,123.7-30.5,34.4-60.9,68.7-91.4,103.1,25.6,29.2,58,72.3,84.9,130.1,29.5,63.3,41.4,120.8,46.6,161.2l.4,140.6h191.5V0H0Z"/>
</svg>